# xmcd
#
# Track frame offsets:
#	182
#	14735
#	31235
#
# Disc length: 612 seconds
#
# Revision: 2
# Processed by: cddbd v1.5.2PL0 Copyright (c) Steve Scherf et al.
# Submitted via: audiograbber 1.83.01
#
DISCID=1d026203
DTITLE=Carlene Carter - Every Little Thing
DYEAR=1993
DGENRE=Country
TTITLE0=Every Little Thing (Album Version)
TTITLE1=Unbreakable Heart (Album Version)
TTITLE2=Sweet Meant To Be (Album Version)
EXTD=
EXTT0=
EXTT1=
EXTT2=
PLAYORDER=
